<?xml version="1.0" encoding="UTF-8"?>
<svg width="400px" height="400px" viewBox="0 0 400 400" version="1.1" xmlns="http://www.w3.org/2000/svg" xmlns:xlink="http://www.w3.org/1999/xlink">
    <!-- Generator: Sketch 58 (84663) - https://sketch.com -->
    <title>isoft Oscuro</title>
    <desc>Created with Sketch.</desc>
    <g id="Page-1" stroke="none" stroke-width="1" fill="none" fill-rule="evenodd">
        <g id="isoft-1-copy-8" transform="translate(-1144.000000, -184.000000)">
            <g id="Group-Copy-2" transform="translate(1244.000000, 297.000000)">
                <rect id="Rectangle-Copy-28" fill="#0C2444" x="0" y="51.5625" width="34.375" height="121.875" rx="17.1875"></rect>
                <rect id="Rectangle-Copy-32" fill="#03DAC4" x="0" y="0" width="34.375" height="34.375" rx="17.1875"></rect>
                <path d="M105.46875,0 L182.421875,0 C192.130005,-1.78335462e-15 200,7.86999463 200,17.578125 C200,27.2862554 192.130005,35.15625 182.421875,35.15625 L113.591486,35.15625 C108.789009,35.15625 104.895833,39.0494261 104.895833,43.8519022 L104.895833,53.0208333 C104.895833,62.5707571 97.1540905,70.3125 87.6041667,70.3125 C78.0542429,70.3125 70.3125,62.5707571 70.3125,53.0208333 L70.3125,35.15625 C70.3125,15.7399893 86.0524893,3.56670923e-15 105.46875,0 Z" id="Rectangle-Copy-36" fill="#0C2444"></path>
                <path d="M105.46875,104.6875 L182.427588,104.6875 C192.132563,104.6875 200,112.554937 200,122.259912 C200,131.964887 192.132563,139.832324 182.427588,139.832324 L113.591486,139.832324 C108.789009,139.832324 104.895833,143.7255 104.895833,148.527976 L104.895833,157.708333 C104.895833,167.258257 97.1540905,175 87.6041667,175 C78.0542429,175 70.3125,167.258257 70.3125,157.708333 L70.3125,139.84375 C70.3125,120.427489 86.0524893,104.6875 105.46875,104.6875 Z" id="Rectangle-Copy-40" fill="#0C2444" transform="translate(135.156250, 139.843750) scale(-1, -1) translate(-135.156250, -139.843750) "></path>
                <rect id="Rectangle-Copy-44" fill="#03DAC4" x="104.6875" y="70.3125" width="60.9375" height="34.375" rx="17.1875"></rect>
            </g>
        </g>
    </g>
</svg>